<?xml version="1.0" standalone="no"?>
<!DOCTYPE svg PUBLIC "-//W3C//DTD SVG 20010904//EN"
 "http://www.w3.org/TR/2001/REC-SVG-20010904/DTD/svg10.dtd">
<svg version="1.0" xmlns="http://www.w3.org/2000/svg"
 width="543.000000pt" height="543.000000pt" viewBox="0 0 543.000000 543.000000"
 preserveAspectRatio="xMidYMid meet">
<metadata>
Created by potrace 1.14, written by Peter Selinger 2001-2017
</metadata>
<g transform="translate(0.000000,543.000000) scale(0.100000,-0.100000)"
fill="#000000" stroke="none">
<path d="M2300 5148 c0 -10 -5 -18 -11 -18 -5 0 -7 6 -3 13 5 7 1 7 -12 -3
-10 -8 -21 -16 -23 -17 -2 -1 2 -10 10 -20 9 -11 10 -14 2 -9 -17 10 -35 -2
-26 -17 12 -19 12 -36 1 -44 -7 -4 -8 -1 -3 8 5 8 4 10 0 6 -13 -11 -15 -38
-2 -30 6 3 3 -4 -6 -17 -12 -18 -14 -27 -5 -37 7 -9 7 -17 -2 -28 -7 -8 -8
-15 -3 -15 5 0 9 -9 10 -20 1 -11 -2 -18 -6 -16 -10 6 -8 -25 3 -42 4 -7 2
-19 -4 -27 -7 -8 -8 -15 -3 -15 5 0 9 -9 10 -20 1 -13 -2 -18 -10 -13 -7 4 -5
-2 3 -12 9 -11 10 -16 3 -11 -12 6 -16 -10 -12 -40 0 -4 -5 -11 -13 -15 -7 -5
-8 -9 -2 -9 14 0 14 -30 0 -30 -6 0 -5 -4 2 -9 14 -9 13 -32 -3 -43 -7 -5 -7
-10 0 -15 14 -11 15 -53 1 -53 -6 0 -5 -4 3 -9 13 -8 13 -12 0 -27 -12 -16
-12 -17 1 -9 13 8 13 7 1 -8 -7 -10 -9 -17 -3 -17 11 0 11 -18 -1 -36 -3 -6
-3 -14 1 -18 4 -4 7 -18 7 -31 1 -20 -2 -22 -14 -12 -12 10 -13 9 -2 -10 11
-21 8 -27 -11 -24 -5 0 -8 -6 -8 -15 0 -9 -5 -12 -12 -8 -10 6 -10 5 -1 -7 10
-12 10 -18 1 -27 -8 -8 -9 -12 -1 -12 9 0 11 -26 3 -37 -3 -4 -2 -53 0 -55 9
-10 5 -48 -4 -48 -7 0 -7 -3 -1 -8 14 -10 17 -32 4 -32 -8 0 -7 -6 2 -17 12
-15 12 -16 -1 -8 -13 7 -13 6 -2 -7 8 -11 9 -18 3 -22 -7 -4 -7 -15 -1 -31 7
-18 5 -28 -7 -40 -8 -9 -13 -19 -9 -22 3 -3 1 -12 -5 -19 -7 -8 -7 -14 1 -19
15 -9 -8 -37 -24 -28 -6 3 -2 -3 8 -15 17 -20 15 -27 -7 -23 -5 1 -5 -4 -1
-11 13 -20 13 -38 2 -38 -6 0 -5 -6 2 -15 10 -12 10 -18 -1 -32 -12 -15 -12
-16 1 -8 13 8 13 7 1 -8 -7 -9 -9 -17 -4 -17 5 0 9 -11 9 -25 0 -14 -5 -25
-10 -25 -6 0 -4 -5 4 -10 11 -7 12 -12 3 -21 -8 -8 -9 -18 -2 -31 7 -13 6 -18
-3 -18 -10 0 -10 -2 0 -9 10 -6 7 -12 -12 -25 -14 -9 -26 -24 -26 -33 0 -13
-3 -14 -12 -5 -9 9 -16 8 -28 -3 -13 -12 -23 -13 -43 -6 -27 11 -34 7 -32 -19
0 -8 -2 -17 -6 -20 -4 -3 -9 -21 -12 -40 -3 -19 -8 -44 -12 -55 -6 -17 -5 -18
5 -5 10 13 11 12 6 -3 -3 -10 -6 -20 -6 -23 0 -2 -7 -1 -15 2 -8 4 -15 2 -16
-2 -4 -46 -4 -62 3 -58 3 2 9 0 13 -6 3 -5 0 -10 -7 -10 -10 0 -10 -2 0 -9 19
-12 19 -14 2 -33 -8 -9 -19 -13 -24 -10 -5 3 -6 0 -2 -6 4 -6 14 -9 24 -6 13
4 14 3 4 -4 -7 -5 -14 -15 -15 -23 -2 -8 -6 -20 -10 -26 -5 -7 -4 -13 0 -13 5
0 9 -9 10 -20 1 -13 -2 -18 -10 -13 -7 4 -5 -2 3 -12 9 -11 10 -16 3 -11 -12
6 -16 -10 -12 -40 0 -4 -5 -11 -13 -15 -7 -5 -8 -9 -2 -9 6 0 11 -7 11 -15 0
-12 -3 -12 -15 -2 -13 10 -14 9 -4 -9 9 -18 8 -25 -8 -39 -20 -18 -21 -18 -35
1 -13 18 -14 18 -8 -5 6 -22 5 -23 -18 -10 -21 11 -22 10 -12 -3 10 -12 10
-15 -2 -15 -8 0 -15 5 -15 10 0 5 -7 4 -15 -3 -8 -7 -15 -9 -15 -5 0 5 -10 0
-22 -11 -13 -10 -17 -12 -11 -4 10 13 8 16 -7 16 -10 0 -16 -4 -14 -8 6 -10
13 -9 -133 -11 -112 -2 -123 -4 -146 -25 -19 -18 -26 -20 -31 -10 -3 7 -3 2 0
-11 4 -14 2 -21 -3 -18 -6 4 -8 -4 -5 -18 2 -15 0 -25 -7 -25 -6 0 -11 -5 -11
-11 0 -5 4 -8 9 -5 14 9 7 -16 -11 -43 -12 -16 -14 -29 -8 -36 6 -7 5 -16 -3
-25 -10 -10 -9 -11 3 -5 9 5 7 -1 -5 -15 -11 -13 -14 -20 -7 -16 15 9 16 -6 1
-21 -11 -11 16 -47 30 -39 4 3 8 -1 8 -9 0 -8 -5 -11 -10 -8 -6 4 -7 1 -1 -8
13 -21 14 -39 1 -39 -8 0 -7 -4 1 -12 15 -15 16 -32 1 -22 -8 4 -8 1 -1 -13
12 -22 -3 -57 -21 -47 -7 3 -1 -4 12 -15 17 -16 19 -21 8 -21 -9 0 -19 -4 -22
-10 -3 -5 0 -7 8 -4 8 3 18 0 23 -7 5 -8 3 -10 -7 -4 -11 6 -12 5 -2 -5 10
-11 8 -16 -10 -25 -15 -7 -22 -20 -22 -40 0 -17 -4 -36 -8 -42 -5 -7 -4 -13 0
-13 5 0 9 -9 10 -20 1 -13 -2 -18 -9 -14 -7 4 -8 2 -4 -5 6 -9 11 -9 24 1 14
12 14 10 2 -12 -9 -17 -10 -25 -1 -28 16 -5 14 -15 -9 -40 -21 -23 -14 -32 8
-10 7 7 12 9 12 5 0 -3 -10 -16 -22 -28 -13 -12 -17 -19 -10 -15 14 8 16 -3 3
-24 -6 -8 -7 -19 -3 -25 11 -18 11 -35 -1 -35 -8 0 -7 -3 2 -9 9 -6 10 -11 3
-15 -7 -4 -8 -15 -3 -28 5 -15 2 -27 -12 -41 -11 -11 -15 -22 -11 -26 11 -8
13 -62 2 -55 -4 3 -8 1 -8 -5 0 -5 5 -11 11 -13 5 -2 7 -11 4 -21 -4 -9 -11
-15 -15 -12 -5 3 -6 -5 -2 -17 4 -15 2 -19 -7 -13 -10 6 -11 3 -2 -14 10 -17
9 -21 -4 -21 -8 0 -15 -5 -15 -11 0 -5 4 -7 10 -4 6 3 7 -1 4 -9 -3 -9 -10
-16 -16 -16 -5 0 -6 5 -3 10 3 6 2 10 -4 10 -5 0 -12 -6 -14 -12 -4 -10 -6
-10 -6 -1 -1 7 -8 10 -17 6 -9 -3 -25 -6 -37 -7 -12 -1 -21 -8 -19 -15 1 -7
-2 -10 -8 -6 -6 3 -8 11 -5 16 4 5 1 9 -4 9 -6 0 -11 -7 -11 -15 0 -12 -5 -13
-17 -7 -16 7 -39 9 -45 2 -2 -1 -21 -3 -43 -5 -58 -4 -58 -4 -52 -20 4 -8 1
-17 -5 -21 -7 -5 -8 -2 -3 6 5 9 4 11 -4 6 -8 -6 -9 -12 -2 -20 7 -9 7 -16 -1
-24 -8 -8 -8 -12 -2 -12 12 0 13 -45 1 -56 -4 -4 -2 -12 3 -19 6 -8 5 -18 -6
-31 -8 -10 -12 -13 -8 -5 5 10 3 12 -7 6 -7 -5 -22 -10 -31 -10 -13 -1 -15 2
-7 11 8 9 5 11 -10 7 -12 -3 -18 -10 -14 -16 3 -6 1 -7 -6 -3 -6 4 -9 11 -6
16 8 13 -30 18 -51 7 -13 -7 -19 -7 -22 2 -3 9 -7 9 -18 0 -10 -8 -18 -8 -27
0 -10 8 -17 7 -25 -1 -8 -8 -12 -9 -12 -1 0 6 -7 14 -16 17 -15 6 -15 4 -3
-11 7 -10 2 -8 -13 5 -17 16 -28 20 -33 12 -5 -8 -11 -8 -19 -1 -7 6 -16 7
-20 3 -4 -4 -13 -7 -19 -7 -13 0 -16 -37 -4 -46 10 -7 -2 -41 -13 -34 -4 2 -5
-6 -3 -19 3 -13 0 -27 -7 -31 -8 -5 -8 -10 0 -20 7 -8 7 -15 1 -19 -6 -4 -6
-18 -1 -35 7 -25 6 -29 -8 -23 -15 5 -15 3 -4 -11 12 -14 11 -15 -12 -11 -15
2 -26 0 -26 -6 0 -6 5 -8 10 -5 5 3 10 -1 10 -9 0 -10 -6 -13 -17 -9 -10 4
-14 2 -10 -4 4 -6 0 -14 -9 -17 -8 -3 -12 -2 -9 4 3 6 -1 7 -9 4 -9 -3 -16
-11 -16 -16 0 -6 -9 -8 -20 -5 -23 6 -36 -8 -19 -19 8 -5 9 -3 4 6 -5 9 -4 11
4 6 16 -10 4 -26 -14 -19 -10 3 -15 -1 -15 -12 0 -9 -5 -13 -10 -10 -6 4 -8
11 -5 16 4 5 2 9 -3 9 -17 0 -20 -25 -6 -51 7 -13 13 -19 14 -13 0 13 30 15
30 2 0 -5 6 -6 12 -2 18 11 48 12 42 2 -10 -16 17 -39 31 -28 10 8 15 8 21 -1
5 -8 3 -10 -7 -4 -12 7 -12 5 -1 -6 11 -12 14 -12 22 1 9 14 15 7 11 -14 -1
-5 6 -5 15 -2 10 4 21 1 25 -6 6 -9 12 -8 25 3 16 12 17 12 12 -3 -9 -21 2
-31 19 -17 9 8 17 8 26 0 10 -8 17 -7 25 1 9 9 12 9 12 -1 0 -11 3 -11 17 0
14 12 16 12 8 0 -6 -11 -3 -13 14 -8 18 4 20 3 11 -8 -10 -12 -8 -13 10 -10
18 3 20 2 10 -10 -8 -9 -8 -15 -2 -15 6 0 9 -8 8 -17 -2 -10 4 -24 13 -31 14
-12 14 -13 -2 -8 -20 7 -16 -6 15 -40 13 -14 16 -24 9 -29 -6 -3 -11 -12 -11
-18 0 -8 3 -8 9 2 7 11 10 11 17 0 12 -20 14 -40 3 -33 -5 3 -6 10 -3 16 5 7
2 8 -5 4 -12 -8 2 -31 39 -64 13 -11 11 -12 -10 -7 -19 4 -17 1 9 -12 19 -10
36 -25 38 -33 3 -10 1 -9 -7 3 -6 9 -16 17 -23 17 -9 0 -9 -3 1 -8 13 -9 12
-77 -1 -99 -4 -6 -3 -14 3 -18 5 -3 10 -11 10 -16 0 -6 -6 -7 -12 -3 -10 6
-10 5 -1 -7 16 -20 17 -31 1 -40 -9 -6 -10 -9 -1 -9 9 0 10 -7 3 -25 -7 -20
-6 -25 5 -25 8 0 15 -5 15 -11 0 -5 -6 -7 -12 -3 -10 6 -10 5 -1 -8 7 -8 9
-19 5 -23 -4 -5 -1 -5 5 -1 8 4 13 1 13 -8 0 -14 11 -20 31 -18 4 1 6 -6 5
-15 0 -9 6 -18 14 -20 13 -4 13 -3 0 7 -13 10 -12 11 3 6 10 -3 21 -6 23 -6 3
0 2 -5 -2 -12 -5 -7 -3 -8 7 -3 20 13 60 15 53 3 -4 -7 0 -7 12 0 23 12 32 12
62 1 14 -6 21 -5 17 0 -3 6 4 9 15 8 11 -1 20 -5 20 -10 0 -5 7 -4 16 4 13 10
17 10 24 -1 7 -11 11 -11 24 0 9 7 19 10 22 7 4 -3 13 0 21 8 11 11 19 12 34
5 10 -6 19 -7 19 -2 0 11 40 9 59 -3 10 -5 16 -4 19 3 2 6 10 8 18 5 8 -3 14
-1 14 5 0 5 7 13 16 16 15 6 15 4 3 -10 -13 -16 -12 -16 7 -6 12 6 25 8 29 4
5 -4 5 -2 1 5 -4 8 1 11 14 10 11 -1 20 -5 20 -10 0 -5 7 -4 15 3 11 9 18 10
28 1 8 -6 17 -8 20 -5 9 10 98 11 104 1 2 -4 11 -3 19 4 10 8 14 8 14 0 0 -6
5 -11 11 -11 5 0 7 6 3 12 -5 9 -2 8 10 -1 9 -8 14 -21 11 -30 -3 -8 -3 -12 1
-8 4 4 12 2 19 -3 8 -7 12 -5 12 5 0 8 -5 11 -11 8 -6 -3 -5 0 3 8 10 11 15
11 18 2 3 -7 11 -13 19 -13 9 0 13 4 10 9 -7 10 13 9 31 -2 6 -4 14 -1 16 5 4
9 6 7 6 -3 1 -12 8 -15 27 -11 15 3 24 1 21 -4 -3 -5 5 -9 18 -9 13 0 21 3 19
6 -2 3 10 6 26 5 20 -1 29 -5 25 -14 -3 -7 0 -10 5 -7 5 3 18 1 29 -5 13 -7
22 -7 26 0 4 6 11 8 16 5 5 -4 9 -1 9 4 0 14 -13 14 -28 -1 -8 -8 -12 -8 -12
-1 0 16 31 25 45 13 6 -5 15 -7 18 -3 10 9 57 10 57 2 0 -4 -5 -9 -12 -11 -7
-3 -5 -7 6 -11 9 -4 15 -3 11 3 -3 5 4 8 15 7 11 -1 20 -6 20 -12 0 -5 4 -4 9
3 11 17 21 17 32 0 5 -7 9 -8 9 -2 0 14 30 14 30 0 0 -6 4 -5 9 2 4 8 12 14
16 14 4 0 12 -6 16 -14 6 -9 9 -9 9 -1 0 6 9 10 19 8 14 -2 18 1 15 10 -4 9 1
12 13 10 10 -2 18 -4 18 -5 0 -1 8 -3 18 -5 9 -2 15 1 11 6 -3 5 -1 9 5 9 5 0
13 -5 16 -10 4 -7 14 -6 28 2 12 6 24 10 27 8 21 -12 50 -18 45 -10 -3 6 -2
10 4 10 5 0 13 -5 16 -10 4 -6 13 -7 23 -1 18 9 35 8 66 -5 15 -6 17 -4 11 7
-7 11 -6 12 6 2 8 -6 18 -11 22 -11 5 0 12 -4 15 -8 4 -4 0 -4 -8 1 -8 5 -12
4 -7 0 10 -12 37 -15 37 -5 0 15 32 4 46 -15 8 -10 14 -14 14 -8 0 12 18 12
36 0 7 -4 25 3 40 15 16 13 24 16 17 7 -10 -12 -8 -15 7 -15 10 0 17 4 14 7
-2 4 0 10 6 14 5 3 10 1 10 -6 0 -9 3 -9 14 0 10 9 15 8 19 -3 4 -9 16 -12 36
-10 18 2 31 -1 31 -7 0 -8 5 -7 15 1 11 9 19 10 28 1 10 -8 19 -7 32 3 11 8
26 11 34 8 9 -3 12 -1 7 7 -9 14 16 11 26 -4 5 -6 8 -6 8 2 0 11 24 12 36 1 3
-4 17 -3 30 2 15 6 26 6 30 -1 4 -7 10 -6 19 1 9 8 14 7 18 -5 4 -8 13 -12 21
-9 8 3 23 1 33 -5 11 -5 25 -6 32 -2 7 5 28 5 47 1 20 -5 34 -4 34 1 0 6 9 5
20 -1 11 -6 20 -7 20 -2 0 5 18 6 40 2 22 -4 40 -3 40 2 0 5 9 4 20 -2 11 -6
20 -7 20 -2 0 5 18 6 40 2 22 -4 40 -3 40 2 0 5 9 4 20 -2 11 -6 20 -7 20 -2
0 5 18 6 40 2 22 -4 40 -3 40 2 0 5 9 4 20 -2 11 -6 20 -7 20 -2 0 5 18 6 40
2 22 -4 40 -4 40 -1 0 4 16 6 35 6 19 -1 35 2 35 7 0 5 6 8 13 7 6 -1 21 -1
31 0 19 1 19 1 1 15 -21 15 -29 46 -12 46 9 0 9 2 1 8 -14 9 -14 42 0 42 7 0
7 3 1 8 -12 9 -16 54 -4 46 5 -3 9 -1 9 5 0 5 -5 13 -10 16 -8 5 -8 11 -1 19
7 9 7 16 -1 24 -8 8 -8 15 1 26 8 9 9 16 2 21 -12 7 -9 53 4 74 5 10 4 12 -3
7 -14 -8 -12 20 2 43 6 9 5 12 -2 7 -14 -8 -12 36 3 47 6 4 5 10 -5 17 -13 9
-13 12 1 23 9 6 14 18 11 26 -2 8 0 11 5 8 5 -3 10 0 10 8 0 8 -4 12 -9 9 -4
-3 -8 2 -8 11 0 10 5 13 13 9 8 -5 8 -3 -2 9 -7 9 -17 15 -20 12 -4 -2 -8 2
-8 10 0 8 4 12 9 9 4 -3 8 0 8 5 0 6 -4 11 -9 11 -12 0 -8 43 4 52 6 5 6 8 -2
8 -7 0 -11 14 -10 35 1 19 7 33 12 31 6 -2 10 14 9 38 0 22 3 49 8 58 5 10 4
19 -2 23 -12 8 -9 37 5 47 6 5 4 12 -5 18 -8 5 -10 10 -4 10 6 0 10 15 10 33
-1 17 3 35 8 39 7 5 2 8 -9 8 -18 1 -18 2 -3 11 19 11 14 36 -11 58 -15 12
-14 13 2 8 9 -4 17 -2 17 3 0 6 -7 10 -16 10 -11 0 -15 6 -11 19 2 10 0 26 -5
35 -5 9 -5 16 -1 16 4 0 8 11 8 25 0 14 -3 25 -7 25 -3 0 -5 14 -3 30 2 17 1
28 -4 26 -9 -6 -8 25 2 42 6 8 3 10 -10 5 -12 -4 -10 1 7 15 14 12 20 21 13
22 -12 0 -12 17 0 37 4 6 2 15 -4 19 -8 4 -7 9 2 15 9 6 10 9 2 9 -12 0 -12
24 0 36 4 4 2 13 -4 20 -7 8 -7 14 1 19 8 5 8 11 -1 21 -8 10 -8 14 0 14 6 0
10 3 10 7 -3 20 2 34 10 29 12 -8 8 13 -8 43 -7 13 -9 21 -3 17 5 -3 9 6 8 23
0 21 -5 27 -16 24 -11 -3 -10 0 3 10 11 9 14 18 8 21 -6 4 -8 13 -5 21 4 8 11
12 17 8 6 -4 7 -1 1 8 -11 18 -11 49 -2 71 5 9 3 20 -2 23 -8 5 -7 12 2 23 11
13 11 14 -2 7 -12 -7 -12 -5 1 11 9 10 15 29 13 42 -3 16 0 21 8 16 7 -5 8 -3
2 7 -13 21 -14 40 -2 33 6 -4 9 -1 6 7 -3 8 2 20 11 27 14 12 14 13 -3 8 -16
-6 -17 -4 -6 9 7 8 9 15 4 15 -5 0 -2 5 6 10 10 6 11 10 2 10 -14 0 -12 21 3
32 6 5 5 8 -3 8 -9 0 -10 5 -2 19 7 13 7 20 -1 23 -5 2 -7 11 -4 21 4 9 10 15
14 13 3 -2 6 10 5 27 -1 18 6 37 14 43 12 9 12 13 2 19 -9 6 -11 4 -5 -5 5 -9
4 -11 -4 -6 -9 6 -9 11 0 22 14 17 23 18 13 2 -5 -9 -3 -9 9 1 9 7 14 18 11
23 -4 6 0 14 7 19 10 6 10 9 2 9 -9 0 -7 11 7 35 10 19 15 37 10 40 -5 3 -7
12 -4 19 3 7 -2 21 -11 30 -19 19 -6 22 15 4 12 -11 12 -10 1 5 -7 9 -10 17
-5 17 5 0 -2 10 -16 23 -14 12 -21 19 -15 15 10 -6 12 12 6 41 -1 2 -7 -2 -14
-8 -16 -13 -28 -5 -20 15 3 8 10 11 17 7 6 -4 5 1 -3 10 -15 18 -26 23 -16 7
3 -6 -1 -7 -10 -4 -11 5 -13 10 -5 19 8 10 8 15 -1 21 -8 5 -9 3 -4 -7 7 -11
6 -11 -9 1 -17 14 -17 15 3 31 18 15 19 18 4 23 -15 6 -14 8 2 20 13 9 15 15
6 20 -9 6 -9 11 -1 21 8 10 8 15 0 20 -8 5 -8 10 0 20 8 10 8 15 0 20 -8 5 -8
10 0 20 8 10 8 15 -1 21 -8 5 -9 3 -4 -7 8 -12 6 -12 -8 0 -18 15 -23 26 -7
16 14 -9 12 19 -2 34 -11 10 -10 12 2 9 8 -2 15 2 15 7 4 25 18 44 29 38 7 -4
7 -2 -1 8 -10 12 -10 18 0 29 7 7 7 10 1 7 -16 -9 -9 44 7 54 8 4 10 11 7 15
-4 4 -3 16 3 27 8 15 8 18 -1 12 -9 -6 -9 -2 -1 14 8 14 8 21 1 21 -5 0 -10 5
-10 11 0 6 6 9 13 6 7 -3 12 5 13 22 1 14 -1 20 -3 14 -3 -7 -8 -13 -12 -13
-9 0 -6 78 4 87 4 5 5 2 0 -6 -6 -10 -4 -12 4 -7 7 5 10 14 7 22 -3 7 -1 16 5
20 6 4 5 12 -3 22 -11 13 -11 14 1 7 11 -6 13 -4 8 8 -3 10 -2 17 4 17 6 0 7
5 4 10 -3 6 0 10 7 10 8 0 9 3 3 8 -18 12 -11 37 10 35 11 -1 14 0 7 3 -6 3
-9 11 -6 16 4 6 2 8 -4 4 -6 -3 -14 -2 -17 4 -4 6 -1 9 6 8 7 -2 13 2 14 9 0
6 3 15 7 19 4 4 3 13 -3 21 -9 10 -8 13 2 13 12 0 12 2 1 9 -17 11 -17 21 0
32 8 6 9 9 1 9 -12 0 -12 17 0 38 5 7 3 12 -3 12 -7 0 -8 6 -1 18 7 13 6 23
-1 30 -9 9 -8 12 3 12 11 0 11 2 1 9 -17 11 -17 21 0 32 8 6 9 9 1 9 -12 0
-12 17 0 38 5 7 3 12 -3 12 -7 0 -8 6 -1 18 7 13 6 23 -1 30 -9 9 -8 12 3 12
11 0 11 2 1 9 -17 10 -17 21 -2 31 13 8 23 70 11 68 -19 -2 -24 4 -11 12 12 8
12 10 1 10 -11 0 -11 3 0 17 12 14 12 16 -1 9 -8 -4 -5 1 8 10 12 9 22 21 22
26 0 6 -7 5 -15 -2 -9 -7 -18 -10 -22 -6 -3 3 -1 6 6 6 7 0 10 4 6 9 -3 6 6 8
21 5 19 -4 25 -1 21 8 -6 17 34 19 45 4 4 -6 8 0 8 13 0 24 0 24 15 5 15 -19
15 -19 8 0 -5 16 -3 18 11 13 9 -4 15 -3 11 2 -3 6 3 14 12 20 10 6 13 11 7
11 -5 0 -16 -6 -24 -12 -8 -7 -6 -3 4 10 11 12 15 22 10 22 -5 0 -2 5 6 10 12
8 13 12 2 19 -8 4 -14 12 -14 16 0 4 6 12 14 16 7 5 8 9 2 9 -6 0 -11 7 -11
15 0 8 5 15 10 15 5 0 4 7 -3 15 -10 12 -9 16 4 21 12 5 14 10 6 19 -7 9 -8
15 -1 19 6 4 9 22 7 41 -1 19 1 40 5 47 4 7 3 18 -3 25 -7 9 -7 17 2 28 7 8 8
15 3 15 -5 0 -9 9 -10 20 -1 11 2 18 6 16 6 -4 7 28 1 44 -1 3 -3 17 -4 32 0
14 -11 38 -23 51 -12 15 -17 29 -12 34 6 6 -3 8 -21 7 -17 -1 -30 3 -30 9 0 8
-3 7 -9 -1 -4 -8 -12 -14 -16 -14 -4 0 -12 6 -16 14 -6 8 -12 9 -16 3 -12 -16
-35 -17 -44 -3 -7 10 -9 10 -9 -2 0 -13 -1 -13 -10 0 -7 11 -10 12 -10 2 0
-10 -4 -10 -15 2 -11 10 -29 14 -55 12 -26 -3 -40 0 -40 7 0 7 -5 5 -10 -3 -6
-10 -10 -11 -10 -2 0 6 -5 12 -11 12 -5 0 -8 -3 -5 -8 2 -4 -11 -8 -29 -8 -19
0 -32 3 -29 8 3 5 10 5 16 2 7 -4 8 -2 4 4 -5 9 -13 9 -28 1 -12 -6 -18 -7
-14 -1 3 5 -1 12 -9 16 -8 3 -15 1 -15 -5 0 -6 -7 -6 -20 1 -14 7 -20 7 -20 0
0 -12 -22 -9 -32 5 -5 6 -8 6 -8 -2 0 -6 -8 -10 -17 -8 -10 1 -24 -3 -32 -9
-9 -6 -12 -7 -9 -1 4 6 -2 11 -12 11 -10 0 -17 -4 -14 -7 2 -4 0 -10 -6 -14
-5 -3 -10 -13 -10 -22 0 -9 -10 -27 -22 -40 -12 -13 -17 -23 -12 -23 5 0 10
-9 11 -20 1 -13 -2 -18 -10 -14 -9 5 -9 3 0 -6 9 -10 10 -17 2 -27 -9 -10 -8
-13 2 -13 11 0 11 -2 -1 -10 -9 -6 -10 -10 -3 -10 6 0 11 -9 10 -19 0 -11 -5
-17 -9 -15 -5 3 -6 10 -3 15 4 5 4 9 1 9 -3 0 -10 -10 -17 -21 -8 -15 -8 -19
0 -15 6 4 11 2 11 -5 0 -7 -10 -9 -27 -6 -24 4 -25 3 -11 -7 15 -11 13 -13
-13 -23 -17 -7 -29 -7 -29 -2 0 6 -8 5 -20 -1 -12 -6 -20 -7 -20 -1 0 5 5 11
12 13 7 3 5 7 -6 11 -10 4 -15 3 -11 -3 6 -10 -7 -14 -32 -11 -7 1 -13 -4 -13
-10 0 -7 -7 -4 -16 7 -15 18 -15 18 -10 0 5 -15 4 -17 -8 -7 -11 9 -16 9 -21
0 -6 -8 -10 -7 -16 2 -7 11 -9 11 -9 -1 0 -13 -1 -13 -10 0 -5 8 -10 11 -10 5
0 -11 -106 -13 -116 -2 -4 4 -13 2 -21 -4 -8 -7 -13 -8 -13 -1 0 5 -7 13 -16
16 -15 6 -15 4 -3 -11 13 -17 13 -17 -7 0 -11 9 -24 14 -27 10 -4 -3 -7 -1 -7
7 0 10 -4 10 -17 -1 -13 -11 -15 -11 -9 -1 5 9 3 13 -5 11 -24 -3 -40 1 -36 9
3 4 -5 7 -18 7 -13 0 -21 -3 -18 -7 6 -10 -1 -10 -30 1 -13 5 -30 6 -37 1 -8
-5 -19 -2 -29 9 -9 9 -12 11 -8 5 6 -9 2 -12 -11 -11 -11 0 -18 6 -15 13 5 12
-30 38 -39 29 -3 -3 -5 2 -5 10 0 11 4 12 11 5 5 -5 14 -10 20 -10 5 0 -1 9
-13 19 -15 13 -18 21 -10 26 8 6 8 10 -2 15 -10 7 -10 11 0 24 8 9 10 16 5 16
-5 0 -9 13 -10 30 -1 16 2 27 6 25 8 -5 6 32 -3 41 -3 4 -2 16 4 27 8 15 8 18
-1 12 -8 -5 -11 -3 -8 6 7 19 -11 51 -24 43 -5 -4 -14 0 -19 7 -7 12 -9 12 -9
0 0 -8 -8 -4 -21 10 -11 13 -18 18 -14 12 4 -8 0 -13 -10 -13 -9 0 -13 4 -10
10 4 6 -2 7 -17 2 -13 -5 -34 -6 -48 -2 -14 4 -31 2 -37 -3 -9 -6 -13 -5 -13
3 0 7 -7 10 -16 6 -8 -3 -12 -2 -9 4 3 5 -7 8 -25 5 -16 -2 -32 1 -36 6 -4 6
-11 6 -19 -1 -9 -8 -15 -8 -20 0 -3 6 -12 7 -18 3 -19 -12 -37 -12 -37 -1 0 6
-7 4 -17 -3 -15 -12 -16 -12 -8 1 8 13 7 13 -9 1 -15 -13 -19 -13 -27 0 -5 8
-9 9 -9 3 0 -14 -42 -13 -52 1 -5 7 -10 7 -15 0 -12 -16 -35 -17 -44 -3 -7 10
-9 10 -9 0 0 -9 -5 -10 -18 -3 -11 6 -24 6 -32 1 -9 -6 -17 -5 -22 3 -5 8 -8
6 -8 -5z m-20 -28 c0 -5 -5 -10 -11 -10 -5 0 -7 5 -4 10 3 6 8 10 11 10 2 0 4
-4 4 -10z m684 -36 c3 -8 2 -12 -4 -9 -6 3 -10 10 -10 16 0 14 7 11 14 -7z
m840 -95 c-3 -5 -10 -7 -15 -3 -5 3 -7 10 -3 15 3 5 10 7 15 3 5 -3 7 -10 3
-15z m-1686 -1473 c-7 -8 -17 -12 -22 -9 -4 3 -2 9 5 14 22 13 31 11 17 -5z
m2090 -796 c-7 -10 -14 -17 -17 -15 -4 4 18 35 25 35 2 0 -1 -9 -8 -20z
m-2853 -130 c3 -5 2 -10 -4 -10 -5 0 -13 5 -16 10 -3 6 -2 10 4 10 5 0 13 -4
16 -10z m-1 -289 c3 -5 -1 -14 -8 -20 -12 -10 -14 -9 -11 6 2 10 4 19 4 21 2
5 10 2 15 -7z m-854 -1251 c0 -5 -2 -10 -4 -10 -3 0 -8 5 -11 10 -3 6 -1 10 4
10 6 0 11 -4 11 -10z"/>
<path d="M3745 4981 c-3 -5 -2 -12 3 -15 5 -3 9 1 9 9 0 17 -3 19 -12 6z"/>
<path d="M4400 4950 c13 -24 17 -25 17 -5 0 8 -6 16 -14 19 -11 4 -11 1 -3
-14z"/>
<path d="M4305 4359 c-4 -6 -5 -12 -2 -15 2 -3 7 2 10 11 7 17 1 20 -8 4z"/>
<path d="M2140 3969 c0 -5 5 -7 10 -4 6 3 10 8 10 11 0 2 -4 4 -10 4 -5 0 -10
-5 -10 -11z"/>
<path d="M4186 3543 c-6 -14 -5 -15 5 -6 7 7 10 15 7 18 -3 3 -9 -2 -12 -12z"/>
<path d="M4165 3350 c-3 -5 -1 -10 4 -10 6 0 11 5 11 10 0 6 -2 10 -4 10 -3 0
-8 -4 -11 -10z"/>
<path d="M4145 3251 c-3 -5 -2 -12 3 -15 5 -3 9 1 9 9 0 17 -3 19 -12 6z"/>
<path d="M1840 2942 c0 -12 3 -12 15 -2 8 7 15 13 15 15 0 1 -7 2 -15 2 -8 0
-15 -7 -15 -15z"/>
<path d="M1404 2886 c-10 -8 -16 -17 -13 -20 3 -3 14 3 24 14 21 23 17 26 -11
6z"/>
<path d="M1340 2740 c-9 -6 -10 -10 -3 -10 6 0 15 5 18 10 8 12 4 12 -15 0z"/>
<path d="M1340 2429 c0 -5 5 -7 10 -4 6 3 10 8 10 11 0 2 -4 4 -10 4 -5 0 -10
-5 -10 -11z"/>
<path d="M800 830 c0 -5 5 -10 11 -10 5 0 7 5 4 10 -3 6 -8 10 -11 10 -2 0 -4
-4 -4 -10z"/>
<path d="M4116 452 c-3 -5 1 -9 9 -9 8 0 12 4 9 9 -3 4 -7 8 -9 8 -2 0 -6 -4
-9 -8z"/>
<path d="M2776 302 c-3 -5 1 -9 9 -9 8 0 12 4 9 9 -3 4 -7 8 -9 8 -2 0 -6 -4
-9 -8z"/>
</g>
</svg>
